<?xml version="1.0" encoding="UTF-8"?>
<!DOCTYPE svg PUBLIC "-//W3C//DTD SVG 1.1//EN" "http://www.w3.org/Graphics/SVG/1.1/DTD/svg11.dtd">
<!-- Creator: CorelDRAW X7 -->
<svg xmlns="http://www.w3.org/2000/svg" xml:space="preserve" width="40%" height="40%" version="1.1" style="shape-rendering:geometricPrecision; text-rendering:geometricPrecision; image-rendering:optimizeQuality; fill-rule:evenodd; clip-rule:evenodd"
viewBox="0 0 856 134"
 xmlns:xlink="http://www.w3.org/1999/xlink">
 <defs>
  <style type="text/css">
   <![CDATA[
    .fil1 {fill:#CC2908}
    .fil0 {fill:#CC2908;fill-rule:nonzero}
   ]]>
  </style>
 </defs>
 <g id="Layer_x0020_1">
  <metadata id="CorelCorpID_0Corel-Layer"/>
  <path class="fil0" d="M98 19c0,5 -2,10 -5,14 -4,3 -8,5 -12,5 -5,0 -9,-2 -13,-5 -3,-4 -5,-9 -5,-14 0,-2 0,-3 1,-5 -10,0 -18,6 -26,17 -7,11 -10,22 -10,34 0,21 11,32 35,32l32 0c-1,8 -6,12 -15,12l-24 0c-15,0 -28,-3 -37,-8 -13,-7 -19,-19 -19,-35 0,-9 3,-18 7,-27 6,-12 15,-22 27,-29 11,-7 22,-10 35,-10l13 0c4,0 8,2 11,6 3,4 5,8 5,13z"/>
  <path id="1" class="fil0" d="M145 97c-1,4 -3,7 -7,10 -3,1 -6,2 -9,2l-25 0c-6,0 -9,-3 -9,-8 0,-1 0,-3 0,-5l21 -80 23 0 -21 81 27 0z"/>
  <path id="2" class="fil0" d="M229 97c-2,8 -7,12 -16,12l-25 0c-7,0 -10,-3 -10,-8 -5,6 -11,9 -18,9 -5,0 -9,-1 -12,-5 -3,-4 -5,-9 -5,-15 0,-10 4,-19 10,-25 7,-6 14,-9 23,-9l37 0 -11 41 27 0zm-43 -28l-13 0 -5 18c0,1 0,2 0,3 0,4 3,6 11,6l7 -27z"/>
  <path id="3" class="fil0" d="M308 97c-1,3 -2,6 -5,8 -4,3 -7,4 -11,4l-49 0c-10,0 -15,-4 -15,-10 0,-1 1,-2 1,-2 0,-4 1,-6 4,-8 2,-1 4,-2 7,-2 5,0 11,3 19,9 2,-3 3,-7 3,-10 0,-2 0,-6 -2,-12l-8 8 -13 0 18 -19c-1,-2 -2,-3 -2,-4 -1,-2 -1,-4 -1,-7l16 -20c7,2 11,6 11,12 0,4 -1,7 -3,10 2,5 3,10 5,15 2,7 3,12 3,16 0,5 -2,8 -4,12l26 0z"/>
  <path id="4" class="fil0" d="M386 97c0,3 -2,6 -5,8 -3,3 -7,4 -10,4l-50 0c-9,0 -14,-4 -14,-10 0,-1 0,-2 0,-2 0,-4 2,-6 4,-8 2,-1 5,-2 7,-2 5,0 12,3 20,9 2,-3 3,-7 3,-10 0,-2 -1,-6 -3,-12l-7 8 -13 0 17 -19c-1,-2 -1,-3 -1,-4 -1,-2 -1,-4 -1,-7l16 -20c7,2 10,6 10,12 0,4 -1,7 -2,10 1,5 3,10 4,15 2,7 3,12 3,16 0,5 -1,8 -4,12l26 0z"/>
  <path id="5" class="fil0" d="M429 25c0,5 -2,9 -5,13 -3,3 -7,5 -12,5 -5,0 -9,-2 -12,-5 -4,-4 -5,-8 -5,-13 0,-6 1,-10 5,-14 3,-3 7,-5 12,-5 5,0 9,2 12,5 3,4 5,8 5,14zm7 72c-2,4 -4,7 -8,10 -2,1 -5,2 -8,2l-26 0c-6,0 -9,-3 -9,-9 0,-2 0,-4 1,-6l10 -38 23 0 -10 41 27 0z"/>
  <path id="6" class="fil0" d="M517 97c-1,4 -3,7 -6,9 -3,2 -6,3 -10,3l-39 0c-7,0 -14,-2 -19,-5 -6,-3 -9,-9 -9,-17 0,0 0,-1 0,-2 1,-9 5,-17 12,-22 6,-4 14,-7 22,-7l17 0c3,0 7,2 9,4 3,3 4,7 4,11 0,4 -1,7 -4,10 -3,3 -6,4 -9,4 -4,0 -7,-1 -10,-4 -2,-3 -4,-6 -3,-11 0,0 0,0 0,-1l-8 0 -5 17c-1,1 -1,2 -1,4 0,4 3,7 9,7l50 0z"/>
  <path id="7" class="fil0" d="M620 19c0,5 -2,10 -6,14 -3,3 -7,5 -12,5 -4,0 -8,-2 -12,-5 -3,-4 -5,-9 -5,-14 0,-2 0,-3 0,-5 -9,0 -17,6 -25,17 -7,11 -11,22 -11,34 0,21 12,32 35,32l33 0c-1,8 -7,12 -16,12l-24 0c-15,0 -27,-3 -36,-8 -13,-7 -19,-19 -19,-35 0,-9 2,-18 7,-27 6,-12 15,-22 26,-29 11,-7 23,-10 35,-10l13 0c5,0 8,2 12,6 3,4 5,8 5,13z"/>
  <path id="8" class="fil0" d="M701 97c-2,8 -8,12 -16,12l-25 0c-7,0 -10,-3 -10,-8 -5,6 -11,9 -18,9 -5,0 -9,-1 -12,-5 -3,-4 -5,-9 -5,-15 0,-10 3,-19 10,-25 6,-6 14,-9 23,-9l36 0 -10 41 27 0zm-43 -28l-14 0 -4 18c0,1 -1,2 -1,3 0,4 4,6 12,6l7 -27z"/>
  <path id="9" class="fil0" d="M777 97c0,3 -2,6 -5,9 -3,2 -6,3 -9,3l-25 0c-7,0 -10,-3 -10,-10 0,-2 0,-3 1,-5l6 -25 -13 0 -10 22c-1,4 -3,6 -6,6l-6 0 8 -28c-2,-1 -4,-3 -6,-5 -2,-3 -2,-6 -2,-9 0,-6 2,-10 7,-14 3,-2 8,-4 13,-4l11 0 -6 19 35 0 -10 41 27 0z"/>
  <path id="10" class="fil0" d="M856 97c-1,3 -2,6 -5,8 -4,3 -7,4 -11,4l-49 0c-10,0 -14,-4 -14,-10 0,-1 0,-2 0,-2 0,-4 1,-6 4,-8 2,-1 4,-2 7,-2 5,0 11,3 19,9 2,-3 4,-7 4,-10 0,-2 -1,-6 -3,-12l-8 8 -13 0 18 -19c-1,-2 -2,-3 -2,-4 -1,-2 -1,-4 -1,-7l16 -20c7,2 11,6 11,12 0,4 -1,7 -3,10 2,5 3,10 5,15 2,7 3,12 3,16 0,5 -1,8 -4,12l26 0z"/>
  <rect class="fil1" transform="matrix(1.11652 -0 -0.728215 1 31.5783 122.934)" width="737.332" height="10.6661"/>
 </g>
</svg>
