<?xml version="1.0" encoding="UTF-8"?>
<!DOCTYPE svg PUBLIC "-//W3C//DTD SVG 1.1//EN" "http://www.w3.org/Graphics/SVG/1.1/DTD/svg11.dtd">
<!-- Creator: CorelDRAW X7 -->
<svg xmlns="http://www.w3.org/2000/svg" xml:space="preserve" width="30%" height="30%" version="1.1" style="shape-rendering:geometricPrecision; text-rendering:geometricPrecision; image-rendering:optimizeQuality; fill-rule:evenodd; clip-rule:evenodd"
viewBox="0 0 704 100"
 xmlns:xlink="http://www.w3.org/1999/xlink">
 <defs>
  <style type="text/css">
   <![CDATA[
    .fil1 {fill:#CC2908}
    .fil0 {fill:#CC2908;fill-rule:nonzero}
   ]]>
  </style>
 </defs>
 <g id="Layer_x0020_1">
  <metadata id="CorelCorpID_0Corel-Layer"/>
  <path class="fil0" d="M74 14c0,4 -2,8 -4,10 -3,3 -6,4 -10,4 -3,0 -6,-1 -9,-4 -2,-2 -4,-6 -4,-10 0,-1 0,-2 1,-3 -7,0 -14,4 -19,13 -6,8 -8,16 -8,24 0,16 8,24 26,24l25 0c-1,7 -5,10 -12,10l-18 0c-12,0 -21,-2 -28,-6 -9,-5 -14,-14 -14,-26 0,-7 2,-14 5,-20 5,-10 12,-17 20,-22 8,-5 17,-8 27,-8l9 0c4,0 6,1 9,4 2,3 4,6 4,10z"/>
  <path id="1" class="fil0" d="M154 42c-1,6 -5,9 -11,9l-31 0c1,1 2,3 3,5 0,2 1,4 1,6 -1,6 -3,12 -8,15 -4,4 -9,6 -16,6 -7,0 -13,-2 -17,-6 -4,-3 -6,-7 -6,-13 0,-1 0,-2 0,-3 1,-6 4,-10 8,-14 4,-3 10,-5 17,-5l60 0zm-53 9l-11 0 -4 15c-1,1 -1,2 -1,3 0,3 3,5 8,5 1,0 1,0 2,0l6 -23z"/>
  <path id="2" class="fil0" d="M190 72c0,3 -2,6 -4,7 -2,2 -5,3 -7,3l-30 0c-5,0 -10,-1 -14,-4 -5,-3 -7,-7 -7,-12 0,-1 0,-2 0,-2 1,-7 4,-13 9,-17 5,-3 11,-5 17,-5l12 0c3,0 5,1 7,3 2,2 3,5 3,8 0,3 -1,6 -3,8 -2,2 -4,3 -7,3 -2,0 -5,-1 -7,-3 -2,-2 -3,-5 -3,-8 0,0 0,-1 0,-2l-6 0 -3 13c-1,1 -1,2 -1,3 0,4 2,5 7,5l37 0z"/>
  <path id="3" class="fil0" d="M273 42c-1,6 -5,9 -12,9l-30 0c1,1 2,3 2,5 1,2 1,4 1,6 0,6 -3,12 -7,15 -4,4 -10,6 -16,6 -8,0 -14,-2 -18,-6 -4,-3 -5,-7 -5,-13 0,-1 0,-2 0,-3 1,-6 3,-10 7,-14 4,-3 10,-5 17,-5l61 0zm-53 9l-12 0 -4 15c0,1 0,2 0,3 0,3 2,5 8,5 0,0 1,0 1,0l7 -23z"/>
  <path id="4" class="fil0" d="M504 42c-2,6 -6,9 -12,9l-29 0 -9 31 -17 0 9 -31 -15 0c-17,24 -33,36 -48,36 -5,0 -9,-1 -12,-3 -4,-3 -6,-7 -6,-12 0,-4 2,-8 5,-12 4,-6 11,-11 21,-14 7,-3 16,-4 25,-4l9 0 30 -42 23 0 -12 42 38 0zm-46 -32l-21 32 11 0 10 -32zm-39 41c-13,0 -21,3 -26,7 -4,3 -6,7 -6,11 0,3 1,5 4,5 4,0 9,-3 15,-8 6,-5 10,-10 13,-15z"/>
  <path id="5" class="fil0" d="M544 72c-1,4 -3,6 -5,8 -2,1 -4,2 -6,2l-20 0c-5,0 -7,-2 -7,-6 -3,4 -6,6 -11,6l-8 0c-3,0 -5,-1 -6,-3 -2,-1 -2,-3 -2,-6 0,-1 0,-3 0,-4l9 -27 17 0 -9 30 10 0 9 -30 18 0 -9 30 20 0z"/>
  <path id="6" class="fil0" d="M587 72c-2,7 -6,10 -12,10l-25 0c-5,0 -7,-2 -7,-6 0,-1 0,-2 0,-4l6 -21 -8 0 3 -9c5,-2 9,-4 12,-6 3,-4 6,-9 9,-17l9 0 -6 23 12 0c-2,6 -5,9 -11,9l-3 0 -6 21 27 0z"/>
  <path id="7" class="fil0" d="M670 42c-1,6 -5,9 -12,9l-30 0c1,1 2,3 2,5 1,2 1,4 1,6 0,6 -3,12 -7,15 -4,4 -10,6 -16,6 -8,0 -14,-2 -18,-6 -4,-3 -5,-7 -5,-13 0,-1 0,-2 0,-3 1,-6 3,-10 7,-14 4,-3 10,-5 17,-5l61 0zm-53 9l-11 0 -5 15c0,1 0,2 0,3 0,3 2,5 8,5 0,0 1,0 1,0l7 -23z"/>
  <path id="8" class="fil0" d="M704 72c0,3 -1,5 -4,7 -2,2 -5,3 -8,3l-37 0c-7,0 -10,-3 -10,-8 0,-1 0,-1 0,-2 0,-2 1,-4 3,-5 1,-1 3,-2 5,-2 4,0 9,3 15,7 1,-2 2,-5 2,-8 0,-1 -1,-4 -2,-9l-5 6 -10 0 13 -14c-1,-1 -1,-2 -1,-3 -1,-1 -1,-3 -1,-5l12 -15c5,1 8,4 8,9 0,3 -1,5 -2,8 1,3 2,7 3,11 2,5 3,9 3,12 0,3 -1,6 -4,8l20 0z"/>
  <polygon id="9" class="fil0" points="271,0 257,25 249,25 256,0 "/>
  <path id="10" class="fil0" d="M331 72c-1,3 -2,5 -4,7 -3,2 -5,3 -8,3l-37 0c-7,0 -11,-3 -11,-8 0,-1 0,-1 0,-2 1,-2 2,-4 3,-5 2,-1 4,-2 6,-2 3,0 8,3 14,7 2,-2 3,-5 3,-8 0,-1 -1,-4 -2,-9l-6 6 -10 0 13 -14c0,-1 -1,-2 -1,-3 0,-1 -1,-3 -1,-5l12 -15c6,1 9,4 9,9 0,3 -1,5 -3,8 2,3 3,7 4,11 2,5 2,9 2,12 0,3 -1,6 -3,8l20 0z"/>
  <rect class="fil1" transform="matrix(1.21718 -0 -0.793867 1 28.2152 92.2004)" width="552.999" height="7.99961"/>
 </g>
</svg>
