<?xml version="1.0" encoding="UTF-8"?>
<!DOCTYPE svg PUBLIC "-//W3C//DTD SVG 1.1//EN" "http://www.w3.org/Graphics/SVG/1.1/DTD/svg11.dtd">
<!-- Creator: CorelDRAW X7 -->
<svg xmlns="http://www.w3.org/2000/svg" xml:space="preserve" width="50%" height="50%" version="1.1" style="shape-rendering:geometricPrecision; text-rendering:geometricPrecision; image-rendering:optimizeQuality; fill-rule:evenodd; clip-rule:evenodd"
viewBox="0 0 1069 167"
 xmlns:xlink="http://www.w3.org/1999/xlink">
 <defs>
  <style type="text/css">
   <![CDATA[
    .fil1 {fill:#CC2908}
    .fil0 {fill:#CC2908;fill-rule:nonzero}
   ]]>
  </style>
 </defs>
 <g id="Layer_x0020_1">
  <metadata id="CorelCorpID_0Corel-Layer"/>
  <path class="fil0" d="M123 24c0,6 -3,12 -7,17 -4,4 -9,6 -15,6 -6,0 -11,-2 -15,-6 -5,-5 -7,-11 -7,-17 0,-3 0,-5 0,-6 -11,0 -22,7 -31,21 -9,14 -13,27 -13,42 0,26 14,40 43,40l41 0c-1,10 -8,15 -19,15l-30 0c-19,0 -34,-3 -46,-10 -16,-8 -24,-23 -24,-43 0,-11 3,-22 9,-34 8,-15 19,-27 33,-36 14,-9 28,-13 44,-13l16 0c6,0 10,2 14,7 5,5 7,10 7,17z"/>
  <path id="1" class="fil0" d="M182 121c-2,5 -5,9 -10,12 -3,2 -7,3 -11,3l-31 0c-8,0 -12,-3 -12,-10 0,-1 0,-3 1,-5l27 -102 28 0 -27 102 35 0z"/>
  <path id="2" class="fil0" d="M286 121c-2,10 -9,15 -20,15l-30 0c-9,0 -14,-3 -14,-10 -6,8 -13,12 -21,12 -7,0 -12,-2 -16,-7 -4,-5 -6,-11 -6,-18 0,-14 4,-24 13,-32 8,-7 17,-11 28,-11l46 0 -14 51 34 0zm-53 -35l-17 0 -6 22c0,2 0,3 0,4 0,6 4,9 14,9l9 -35z"/>
  <path id="3" class="fil0" d="M384 121c0,4 -2,8 -6,11 -4,3 -8,4 -13,4l-62 0c-11,0 -17,-4 -17,-13 0,-1 0,-1 0,-2 0,-4 2,-7 5,-9 3,-2 6,-3 9,-3 6,0 14,4 24,11 3,-4 4,-8 4,-13 0,-2 -1,-7 -3,-15l-10 10 -16 0 22 -23c-1,-2 -2,-4 -2,-5 -1,-3 -1,-5 -1,-8l20 -26c9,2 13,7 13,15 0,4 -1,9 -3,13 2,6 4,12 6,19 2,8 3,14 3,19 0,6 -1,11 -5,15l32 0z"/>
  <path id="4" class="fil0" d="M483 121c-1,4 -3,8 -7,11 -4,3 -8,4 -13,4l-61 0c-12,0 -18,-4 -18,-13 0,-1 0,-1 0,-2 0,-4 2,-7 5,-9 3,-2 6,-3 9,-3 6,0 14,4 24,11 3,-4 4,-8 4,-13 0,-2 -1,-7 -3,-15l-9 10 -17 0 22 -23c-1,-2 -2,-4 -2,-5 -1,-3 -1,-5 -1,-8l20 -26c9,2 13,7 13,15 0,4 -1,9 -3,13 2,6 4,12 6,19 2,8 4,14 4,19 0,6 -2,11 -6,15l33 0z"/>
  <path id="5" class="fil0" d="M536 31c0,6 -2,12 -6,16 -4,5 -9,7 -15,7 -6,0 -11,-2 -15,-7 -5,-4 -7,-10 -7,-16 0,-7 2,-12 7,-17 4,-4 9,-6 15,-6 6,0 11,2 15,6 4,5 6,10 6,17zm8 90c-1,5 -4,9 -8,12 -4,2 -7,3 -11,3l-32 0c-8,0 -12,-4 -12,-12 0,-2 1,-4 2,-7l12 -47 29 0 -13 51 33 0z"/>
  <path id="6" class="fil0" d="M646 121c-1,5 -3,9 -7,11 -4,3 -8,4 -12,4l-49 0c-10,0 -18,-2 -24,-6 -8,-4 -12,-11 -12,-21 0,-1 0,-2 0,-3 1,-12 6,-21 15,-27 8,-6 18,-9 28,-9l21 0c5,0 8,2 12,6 3,3 5,7 5,12 0,5 -2,10 -5,13 -4,4 -8,6 -12,6 -5,0 -9,-2 -12,-6 -3,-3 -5,-8 -5,-13 0,0 0,-1 0,-2l-9 0 -7 21c0,2 -1,4 -1,5 0,6 4,9 12,9l62 0z"/>
  <path id="7" class="fil0" d="M775 24c0,6 -3,12 -7,17 -4,4 -9,6 -15,6 -6,0 -11,-2 -15,-6 -5,-5 -7,-11 -7,-17 0,-3 0,-5 1,-6 -12,0 -23,7 -32,21 -9,14 -13,27 -13,42 0,26 14,40 43,40l41 0c-1,10 -8,15 -19,15l-30 0c-19,0 -34,-3 -46,-10 -16,-8 -24,-23 -24,-43 0,-11 3,-22 9,-34 8,-15 19,-27 33,-36 14,-9 29,-13 44,-13l16 0c6,0 10,2 15,7 4,5 6,10 6,17z"/>
  <path id="8" class="fil0" d="M876 121c-3,10 -9,15 -20,15l-31 0c-9,0 -13,-3 -13,-10 -6,8 -13,12 -22,12 -6,0 -11,-2 -15,-7 -4,-5 -6,-11 -6,-18 0,-14 4,-24 13,-32 7,-7 17,-11 28,-11l46 0 -14 51 34 0zm-54 -35l-16 0 -6 22c0,2 -1,3 -1,4 0,6 5,9 14,9l9 -35z"/>
  <path id="9" class="fil0" d="M971 121c0,4 -2,8 -6,11 -4,3 -8,4 -12,4l-31 0c-8,0 -12,-4 -12,-12 0,-2 0,-4 1,-7l8 -31 -17 0 -12 28c-1,4 -4,7 -8,7l-7 0 11 -35c-4,-1 -6,-3 -8,-6 -2,-3 -3,-7 -3,-11 0,-7 2,-13 8,-17 5,-4 11,-5 17,-5l13 0 -6 23 43 0 -13 51 34 0z"/>
  <path id="10" class="fil0" d="M1069 121c0,4 -2,8 -6,11 -4,3 -8,4 -13,4l-62 0c-11,0 -17,-4 -17,-13 0,-1 0,-1 0,-2 0,-4 2,-7 5,-9 3,-2 6,-3 9,-3 6,0 14,4 24,11 3,-4 4,-8 4,-13 0,-2 -1,-7 -3,-15l-10 10 -16 0 22 -23c-1,-2 -2,-4 -2,-5 -1,-3 -1,-5 -1,-8l20 -26c9,2 13,7 13,15 0,4 -1,9 -3,13 2,6 4,12 6,19 2,8 3,14 3,19 0,6 -1,11 -5,15l32 0z"/>
  <rect class="fil1" transform="matrix(1 -0 -0.652219 1 146.865 153.667)" width="921.665" height="13.3327"/>
 </g>
</svg>
